<svg width="468" height="342" viewBox="0 0 468 342" fill="none" xmlns="http://www.w3.org/2000/svg">
<path fill-rule="evenodd" clip-rule="evenodd" d="M226.529 0.483421C266.678 3.08981 301.806 19.3114 335.22 36.6069C368.004 53.5759 396.227 73.9694 417.73 99.4508C442.09 128.317 473.058 159.005 467.3 193.121C461.533 227.292 418.491 248.727 388.242 274.17C358.832 298.907 334.912 331.198 292.797 339.899C250.89 348.557 209.943 328.203 167.991 319.674C124.685 310.869 70.5648 315.846 42.5168 289.013C14.4382 262.151 37.1462 222.249 30.5366 188.175C23.8795 153.857 -11.153 121.113 3.58558 88.3152C18.4305 55.2805 64.8728 37.6323 105.353 21.6844C142.977 6.8621 184.396 -2.25174 226.529 0.483421Z" fill="#FDD20E"/>
</svg>
